<?xml version="1.0" ?><!DOCTYPE svg  PUBLIC '-//W3C//DTD SVG 1.1//EN'  'http://www.w3.org/Graphics/SVG/1.1/DTD/svg11.dtd'><svg xmlns="http://www.w3.org/2000/svg" xmlns:xlink="http://www.w3.org/1999/xlink" version="1.1" id="Layer_1" width="512px" height="512px" viewBox="0 0 512 512" enable-background="new 0 0 512 512" xml:space="preserve"><g><path fill-rule="evenodd" clip-rule="evenodd" fill="#FFF584" d="M26.625,157.617c135.689,0,271.379,0,407.063,0l-40.943,345.478   c-108.39,0-216.787,0-325.175,0L26.625,157.617z"/><path fill-rule="evenodd" clip-rule="evenodd" fill="#FFF584" d="M119.053,213.078c10.858,0,19.662,8.805,19.662,19.66   s-8.804,19.66-19.662,19.66c-10.855,0-19.657-8.805-19.657-19.66S108.197,213.078,119.053,213.078z"/><circle fill-rule="evenodd" clip-rule="evenodd" fill="#FFF584" cx="341.256" cy="232.738" r="19.66"/><path fill-rule="evenodd" clip-rule="evenodd" fill="#F5ACCC" d="M399.23,470.259c47.441,0,86.133-38.693,86.133-86.134   c0-47.439-38.691-86.136-86.133-86.136c-47.445,0-86.14,38.697-86.14,86.136C313.091,431.565,351.785,470.259,399.23,470.259z"/><g><path fill="#5B57A4" d="M419.705,351.57c3.977,2.599,6.477,5.848,6.477,9.124c0,4.918,4.003,8.907,8.918,8.907    c4.921,0,8.916-3.989,8.916-8.907c0-9.659-5.638-18.132-14.646-24.014c-5.816-3.799-13.37-6.524-21.37-7.693v-1.981    c0-4.918-4.08-8.904-8.998-8.904c-4.921,0-9.002,3.986-9.002,8.904v1.981c-8,1.168-15.329,3.894-21.147,7.693    c-9.006,5.882-14.663,14.354-14.663,24.014c0,21.418,16.811,26.995,35.811,30.774v29.751c-4-0.903-8.319-2.478-11.476-4.541    c-3.979-2.597-6.362-5.847-6.362-9.125c0-4.917-3.945-8.909-8.863-8.909s-8.887,3.992-8.887,8.909    c0,9.66,5.424,18.133,14.43,24.015c5.818,3.796,13.158,6.524,21.158,7.693v1.982c0,4.919,4.081,8.906,9.002,8.906    c4.918,0,8.998-3.986,8.998-8.906v-1.982c8-1.169,15.558-3.897,21.374-7.693c9.008-5.882,14.551-14.354,14.551-24.015    c0-21.419-16.925-26.992-35.925-30.771v-29.754C413,347.935,416.545,349.51,419.705,351.57z M390,373.299    c-10-2.304-17.919-5.557-17.919-12.605c0-3.275,2.384-6.524,6.362-9.124c3.156-2.06,7.557-3.635,11.557-4.541V373.299z     M426.148,407.554c0,3.278-2.5,6.528-6.477,9.125c-3.16,2.063-6.672,3.638-11.672,4.541v-26.267    C418,397.257,426.148,400.51,426.148,407.554z"/><path fill="#5B57A4" d="M466.428,316.925c-10.961-10.965-24.595-19.265-39.834-23.838l15.883-134.013    c0.078-0.472,0.117-0.817,0.117-1.312c0-4.918-3.987-8.762-8.905-8.762H351v-20.161c0-35.147-13.477-67.278-35.215-90.643    C293.893,14.662,263.726,0,230.608,0c-33.251,0-63.506,14.586-85.372,38.083C123.531,61.412,110,93.542,110,128.839V149H27v-0.28    c-1,0-0.878,0.019-1.233,0.06c-4.876,0.576-8.457,5.001-7.881,9.881l40.853,345.097c0.338,4.611,4.138,8.242,8.832,8.242H393    v-0.009c4,0.006,8.174-3.325,8.703-7.854l2.914-25.121c24.118-1.332,45.816-11.662,61.842-27.691    c17.195-17.198,27.826-40.961,27.826-67.2C494.285,357.884,483.623,334.125,466.428,316.925z M341.256,221.982    c2.974,0,5.658,1.207,7.606,3.151c1.947,1.945,3.151,4.637,3.151,7.605c0,2.968-1.204,5.658-3.151,7.604    c-1.948,1.944-4.633,3.151-7.606,3.151c-2.967,0-5.655-1.207-7.601-3.151c-1.947-1.945-3.149-4.635-3.149-7.604    c0-2.968,1.202-5.66,3.149-7.605C335.601,223.189,338.289,221.982,341.256,221.982z M128,128.839    c0-30.667,11.613-58.505,30.362-78.65c18.582-19.975,44.175-32.376,72.291-32.376c27.982,0,53.411,12.471,72.034,32.489    C321.467,70.484,333,98.323,333,128.839V149H128V128.839z M111.453,225.133c1.932-1.928,4.57-3.133,7.511-3.151l0.036,0.003V222    h0.119c2.941,0,5.606,1.214,7.542,3.142c1.945,1.945,3.15,4.633,3.15,7.601c0,2.968-1.205,5.656-3.15,7.601    c-1.95,1.944-4.635,3.15-7.608,3.15c-2.967,0-5.656-1.208-7.6-3.152c-1.946-1.945-3.15-4.635-3.15-7.604    C108.303,229.771,109.507,227.079,111.453,225.133z M384.841,494H75.476L36.641,167H110v38.588c-4,1.412-8.086,3.821-11.217,6.953    c-5.171,5.168-8.332,12.31-8.332,20.197s3.218,15.029,8.389,20.197c5.168,5.171,12.318,8.37,20.203,8.37    c7.893,0,15.038-3.199,20.208-8.37c5.167-5.168,8.366-12.31,8.366-20.197s-3.176-15.029-8.343-20.197    C136.138,209.409,132,207,128,205.588V167h205v38.289c-4,1.356-8.736,3.885-12.104,7.252c-5.17,5.168-8.287,12.31-8.287,20.197    s3.24,15.029,8.41,20.197c5.169,5.171,12.331,8.37,20.216,8.37c7.894,0,15.046-3.199,20.214-8.37    c5.168-5.168,8.371-12.31,8.371-20.197s-3.267-15.029-8.435-20.197c-2.895-2.892-6.386-5.169-10.386-6.615V167h72.671    l-14.584,122.83c-3.24-0.335-6.53-0.627-9.856-0.627c-26.243,0-50.001,10.581-67.2,27.782    c-17.198,17.2-27.842,40.929-27.842,67.17c0,26.239,10.644,49.987,27.842,67.185c14.416,14.421,33.447,24.125,54.685,26.92    L384.841,494z M453.837,438.732c-13.977,13.976-33.286,22.621-54.606,22.621c-21.323,0-40.633-8.646-54.61-22.621    c-13.973-13.976-22.621-33.286-22.621-54.607c0-21.322,8.648-40.63,22.621-54.605c13.978-13.976,33.287-22.624,54.61-22.624    c21.32,0,40.63,8.648,54.606,22.624c13.973,13.976,22.621,33.284,22.621,54.605C476.458,405.446,467.81,424.756,453.837,438.732z"/></g></g></svg>